<?xml version="1.0" encoding="utf-8"?>
<!-- Generator: Adobe Illustrator 27.0.1, SVG Export Plug-In . SVG Version: 6.00 Build 0)  -->
<svg version="1.1" id="Capa_1" xmlns="http://www.w3.org/2000/svg" xmlns:xlink="http://www.w3.org/1999/xlink" x="0px" y="0px"
	 viewBox="0 0 750 750" style="enable-background:new 0 0 750 750;" xml:space="preserve">
<style type="text/css">
	.st0{fill:#F98523;}
	.st1{fill:#FFFFFF;}
	.st2{fill:#231F20;}
	.st3{fill:#B3B5B8;}
</style>
<g>
	<path class="st0" d="M560.7,286.37c-0.94,0.33-1.9,0.6-2.88,0.8c-0.98,0.2-1.97,0.34-2.96,0.4c-1,0.07-1.99,0.07-2.99,0
		c-1-0.07-1.99-0.2-2.97-0.4c-0.98-0.2-1.94-0.47-2.88-0.8c-0.94-0.33-1.86-0.73-2.75-1.18c-0.89-0.46-1.74-0.97-2.57-1.54
		c-0.82-0.57-1.6-1.2-2.33-1.87c-2.14,1.76-4.43,3.31-6.85,4.67s-4.94,2.48-7.56,3.39s-5.3,1.57-8.04,2
		c-2.74,0.43-5.49,0.61-8.27,0.55c0,0-30.71-24.04-57.58-19.27c-0.13-7.17,0.29-11.43-11.35-11.76
		c-11.08,0.14-21.93,1.82-32.53,5.05c24.37-29.7,78.01-40.95,80.4-38.84c34.12,16.3,67.02,47.38,83.47,31.94
		C570.08,259.5,576.2,279.53,560.7,286.37 M678.38,324.41c0,0-94.6-108.37-251.9-125.72c-15.7,7.07-47.02,20.02-50.98,37.58
		c-7.63,34.02,31.29,73.98,31.29,73.98c-67.23-24.95-70.72-67.21-69.27-75.76c2.49-14.84,17.15-29.29,48.82-39.06
		c-7.97-1.15-15.87-2.64-23.7-4.47c-6.39,2.7-12.37,6.11-17.94,10.24c-5.58,4.12-10.59,8.84-15.04,14.16
		c0.21-2.82,0.7-5.6,1.45-8.32c0.75-2.73,1.76-5.36,3.02-7.89c1.26-2.53,2.75-4.92,4.47-7.17c1.72-2.24,3.64-4.3,5.76-6.18
		c-4.58-1.86-9.32-3.16-14.2-3.93c-7.76-0.35-19.76,5.69-52.88,15.78c13.4,8.03,27.51,14.54,42.32,19.53
		c-13.28,5.71-58.59,0-84.63-9.76c-13.88,1.9-27.81,2.29-41.78,1.16c26.13,15.28,59.54,27.04,77.54,27.88
		c19.26,0.9,50.09-9.09,55.49-11.48c-16.33,37.17-58.19,56.74-58.19,56.74s-38.89-14.85-54.72-27.18
		c-8.11,5.18-15.1,11.59-20.97,19.21c10.56-0.58,21.06,0,31.49,1.72c10.43,1.73,20.56,4.56,30.37,8.51c0,0-54.64-3.87-78.36,15.42
		c-2.43,4.82-4.62,9.74-6.57,14.77c6.88-2.8,13.87-5.34,20.94-7.62c7.08-2.27,14.23-4.27,21.46-6.01
		c7.23-1.73,14.51-3.18,21.85-4.36c7.34-1.18,14.71-2.08,22.12-2.7c7.41-0.62,14.83-0.96,22.26-1.01
		c7.43-0.06,14.86,0.17,22.28,0.68c7.42,0.51,14.8,1.3,22.16,2.36c7.36,1.07,14.66,2.42,21.92,4.04
		c10.98,0.87,21.82,2.63,32.51,5.29c0,0-103-8.64-146.63,38.59c0,0,64.1-34.06,118.88-21.09c-6.05,5.6-11.74,11.54-17.07,17.83
		c-5.33,6.29-10.25,12.88-14.77,19.77c-4.52,6.89-8.61,14.03-12.26,21.42c-3.65,7.39-6.84,14.97-9.57,22.75v0.04
		c0.27,0.12,0.78,0.28,1.53,0.51c25.72-57.58,79.62-80.13,91.23-86.4c0,0-44.84,48.58-47.52,75.73c6.52-4.41,13.42-8.09,20.71-11.05
		c7.29-2.96,14.8-5.14,22.55-6.54c6.03-1.58,12.15-2.54,18.38-2.89c-7.23,4.91-13.79,10.6-19.66,17.08
		c-5.87,6.48-10.89,13.56-15.06,21.24c0,0,19.46-18.95,69.6-35.52l3.96-3.39c9.6-8.74,19.88-16.6,30.84-23.56
		s22.44-12.93,34.44-17.9c-26.75,2.57-105.67,34.3-105.67,34.3c15.28-10.44,31.38-19.42,48.29-26.94
		c16.91-7.51,34.37-13.44,52.36-17.78c0,0-58.22,1.84-96.27,11.58c17.28-6.69,35.05-11.64,53.31-14.83
		c18.26-3.19,36.65-4.58,55.18-4.15c30.59,0.69,71.72,17.19,71.72,17.19l10.13,1.28l-8.79-24.38c0,0,20.42,15.84,25.98,16.07
		C618.15,324.02,678.38,324.41,678.38,324.41"/>
	<path class="st1" d="M178.06,371.43c7.15,1.91,14.54,3.72,22.24,5.4c8.01-6.25,16.41-11.92,25.2-17.01
		c8.79-5.09,17.89-9.56,27.29-13.4s19.03-7.02,28.87-9.54c9.84-2.52,19.81-4.35,29.9-5.49c-5.52,4.08-10.76,8.51-15.71,13.27
		c-4.95,4.76-9.58,9.82-13.88,15.18c-4.3,5.36-8.24,10.97-11.82,16.83c-3.58,5.86-6.76,11.93-9.56,18.21
		c11.72,2.48,23.27,5.57,34.67,9.26l0.04-0.04c2.73-7.78,5.92-15.36,9.57-22.74c3.65-7.39,7.74-14.53,12.27-21.41
		c4.52-6.89,9.45-13.48,14.77-19.77c5.33-6.29,11.01-12.23,17.07-17.83c-54.78-12.97-118.88,21.09-118.88,21.09
		c43.64-47.2,146.63-38.59,146.63-38.59c-10.68-2.65-21.51-4.41-32.48-5.29c-24.6-1.43-48.9,0.67-72.89,6.3
		c-1.14,0.28-2.28,0.55-3.42,0.86l-0.38,0.09c-6.59,1.61-13.05,3.66-19.37,6.13c-6.32,2.47-12.45,5.35-18.39,8.64
		c-5.94,3.29-11.63,6.96-17.08,11c-5.45,4.05-10.61,8.44-15.47,13.17C189.7,353.45,183.3,362,178.06,371.43 M254.18,283.96
		c-9.81-3.95-19.93-6.78-30.37-8.51s-20.93-2.3-31.49-1.72c-6.46,7.94-11.97,16.49-16.54,25.65c23.73-19.31,78.37-15.42,78.37-15.42
		H254.18z M494.28,262.59c0.65,0,1.28-0.1,1.9-0.29c0.62-0.2,1.2-0.48,1.73-0.85c0.53-0.37,1-0.82,1.39-1.33
		c0.4-0.51,0.71-1.08,0.93-1.69c-3.23-2.38-6.36-4.9-9.37-7.55c-1.29-1.16-2.53-2.37-3.72-3.64c-1.07,0.05-2.12,0.19-3.15,0.44
		c-1.04,0.24-2.04,0.58-3.02,1.01c-0.97,0.43-1.9,0.95-2.78,1.56c-0.88,0.61-1.69,1.29-2.44,2.04s-1.42,1.58-2.02,2.46
		c-0.6,0.88-1.11,1.82-1.53,2.79c-0.42,0.98-0.75,1.99-0.98,3.03c-0.23,1.04-0.37,2.09-0.4,3.16c1.75-0.18,3.5-0.17,5.24,0.03
		c1.75,0.19,3.46,0.57,5.12,1.12c1.67,0.56,3.26,1.28,4.77,2.17c1.51,0.89,2.92,1.93,4.21,3.13c-1.39-2.64-2.11-5.45-2.17-8.43
		c-0.02-1.18,0.08-2.35,0.29-3.5c0.21,0.63,0.51,1.21,0.9,1.75c0.39,0.53,0.86,1,1.4,1.39c0.54,0.39,1.12,0.69,1.75,0.89
		C492.96,262.48,493.61,262.59,494.28,262.59L494.28,262.59z M406.22,266.4c10.6-3.23,21.45-4.92,32.53-5.05
		c11.64,0.33,11.21,4.59,11.35,11.76c0,0,12.57-16.65-1.44-16.68C435.09,256.4,406.22,266.4,406.22,266.4 M570.08,259.5
		c-16.45,15.43-49.35-15.64-83.47-31.94c20.02,17.66,37.55,40.3,58,44.78c1.26,0.28,2.53,0.45,3.82,0.51
		c1.29,0.06,2.57,0.01,3.85-0.15c1.28-0.16,2.54-0.43,3.77-0.8c1.23-0.38,2.43-0.85,3.58-1.43s2.25-1.26,3.28-2.02
		c1.04-0.77,2-1.62,2.89-2.55c0.89-0.93,1.69-1.94,2.41-3.01C568.94,261.81,569.56,260.68,570.08,259.5 M585.24,330.8
		c-73.5-10.01-139.69,40.22-144.19,42.1l-3.96,3.39c-2.8,3.2-5.42,6.54-7.84,10.03c-2.43,3.49-4.65,7.1-6.68,10.85
		c-2.02,3.74-3.83,7.58-5.43,11.52c-1.6,3.94-2.97,7.96-4.11,12.05c-1.15,4.1-2.06,8.24-2.75,12.44c-0.68,4.2-1.13,8.42-1.34,12.67
		c-0.21,4.25-0.19,8.49,0.07,12.74c0.26,4.24,0.76,8.46,1.49,12.65c21.87,20.5,41.34,43.08,58.4,67.72c0,0,23.38-18.69,47.83-8.35
		c0,0,0-20.55,12.35-30.82c0,0-32-21.68-57.2-4.18c-86.45-102.22,55.53-153.48,124.69-147.54l49.87,32.65
		c1.27-0.79,2.48-1.65,3.64-2.59c1.16-0.94,2.25-1.95,3.28-3.03c1.03-1.08,1.98-2.22,2.86-3.43c0.88-1.2,1.68-2.46,2.4-3.77
		c0.72-1.31,1.35-2.66,1.89-4.05c0.54-1.39,1-2.81,1.36-4.25c0.36-1.45,0.63-2.91,0.8-4.39c0.17-1.48,0.25-2.97,0.23-4.46
		l-67.5-18.67L585.24,330.8z M402.2,373.49c-6.22,0.35-12.35,1.31-18.38,2.89c-8.32,6.42-15.73,13.76-22.23,22.01
		c-6.5,8.25-11.89,17.18-16.19,26.77c10.36,5.45,20.37,11.49,30.01,18.13c13.6-36.51,45.57-61.78,61.66-67
		c-50.15,16.54-69.6,35.52-69.6,35.52c4.17-7.68,9.19-14.77,15.06-21.25c5.87-6.48,12.42-12.18,19.66-17.09V373.49z M524.13,477.62
		c5.53,1.39,10.88,3.28,16.04,5.7c0.97-2.31,1.53-4.71,1.67-7.22c0.15-2.5-0.13-4.95-0.82-7.36
		C535.62,472.14,529.99,475.1,524.13,477.62 M270.69,236.45c-17.99-0.83-51.41-12.59-77.54-27.88c0,0,42.38,37.8,75.66,41.31
		c14.62,1.54,51.45-19.86,57.36-24.92C320.78,227.36,289.95,237.35,270.69,236.45 M614.1,381.49l16.62,12.7
		c-5.27,6.28-21.02,8.3-21.02,8.3C611.53,396.16,613,387.36,614.1,381.49"/>
	<path class="st2" d="M609.71,402.48c1.84-6.32,3.29-15.12,4.39-21l16.62,12.7C625.45,400.47,609.71,402.48,609.71,402.48
		L609.71,402.48z M484.53,441.06c-0.66,6.02-2.73,15.93,11.21,28.02c-9.9-0.04-17.89-2.33-21.02-6.94
		c-12.25-18.07-11.83-34.06-3.88-47.52C487.09,425.75,485.31,434.12,484.53,441.06 M541.02,468.72c0.69,2.41,0.97,4.86,0.82,7.36
		c-0.14,2.5-0.7,4.9-1.67,7.22c-5.17-2.41-10.51-4.31-16.04-5.7C529.99,475.09,535.62,472.13,541.02,468.72 M385.18,173.46
		c-15.01-1.35-43.37-10.94-53.17-10.83c-21.14,0.24-101.94,37.68-193.76,19.23c6.54,10.45,14,20.18,22.4,29.19
		c8.4,9.02,17.58,17.15,27.53,24.41c-7.52,5.6-14.2,12.07-20.05,19.4c-99.34-26.34-135.93-58-135.93-58s11.02,37,120.8,78.88v0.28
		c-5.09,8.27-9.6,16.84-13.53,25.73c-18.14-5.93-35.81-13.05-53-21.34c-17.19-8.29-33.75-17.7-49.69-28.21
		c8.75,14.79,42.61,57.07,157.71,96.5l2.79-2.93c4.86-4.73,10.02-9.12,15.47-13.17c5.45-4.05,11.14-7.71,17.08-11
		s12.07-6.17,18.38-8.64c6.32-2.47,12.78-4.52,19.37-6.13l0.38-0.09c1.15-0.31,2.28-0.58,3.42-0.86c23.99-5.64,48.28-7.74,72.88-6.3
		c-7.26-1.62-14.56-2.97-21.92-4.04c-7.36-1.07-14.74-1.86-22.16-2.37c-7.42-0.51-14.84-0.73-22.28-0.68
		c-7.43,0.05-14.86,0.39-22.26,1.01c-7.41,0.62-14.79,1.52-22.12,2.69c-7.34,1.18-14.63,2.63-21.86,4.36
		c-7.23,1.73-14.39,3.73-21.46,6.01c-7.08,2.27-14.06,4.81-20.95,7.62c2.08-5.35,4.29-10.27,6.57-14.77
		c4.57-9.16,10.08-17.71,16.54-25.65c5.87-7.62,12.86-14.02,20.97-19.21c15.82,12.33,54.71,27.18,54.71,27.18
		s41.85-19.6,58.19-56.74c-5.92,5.05-42.74,26.45-57.36,24.92c-33.28-3.51-75.66-41.31-75.66-41.31
		c13.97,1.12,27.89,0.74,41.78-1.16c25.98,9.76,71.3,15.47,84.58,9.76c-14.81-4.98-28.92-11.49-42.32-19.53
		c33.12-10.09,45.12-16.13,52.88-15.78c4.89,0.76,9.62,2.07,14.2,3.93c-2.12,1.87-4.04,3.93-5.76,6.18
		c-1.72,2.25-3.21,4.64-4.47,7.17c-1.26,2.53-2.27,5.16-3.02,7.89c-0.75,2.73-1.23,5.5-1.45,8.32c4.46-5.32,9.47-10.04,15.05-14.16
		c5.58-4.12,11.57-7.53,17.96-10.23c6.49,1.54,14.26,3.06,23.7,4.47c-31.68,9.77-46.33,24.22-48.82,39.06
		c-1.45,8.58,2.04,50.81,69.3,75.76c0,0-38.92-39.95-31.29-73.98c3.93-17.56,35.26-30.52,50.95-37.58
		c157.3,17.35,251.9,125.72,251.9,125.72s-60.26-0.38-65.79-0.61c-5.53-0.23-26.01-16.1-26.01-16.1l8.79,24.38l67.52,18.65
		c0.02,1.49-0.05,2.98-0.23,4.46c-0.17,1.48-0.44,2.95-0.8,4.39c-0.36,1.45-0.81,2.86-1.36,4.25s-1.17,2.74-1.89,4.05
		c-0.72,1.31-1.52,2.56-2.4,3.77c-0.88,1.2-1.83,2.35-2.86,3.43c-1.03,1.08-2.12,2.09-3.28,3.03c-1.16,0.94-2.37,1.8-3.64,2.59
		l-49.87-32.64c-69.17-5.91-211.14,45.33-124.69,147.61c25.2-17.5,57.2,4.18,57.2,4.18c-12.35,10.27-12.35,30.82-12.35,30.82
		c-24.45-10.34-47.83,8.35-47.83,8.35c-17.06-24.65-36.53-47.22-58.4-67.72c-0.73-4.19-1.23-8.4-1.49-12.65
		c-0.26-4.24-0.29-8.49-0.07-12.73c0.21-4.25,0.66-8.47,1.34-12.67c0.68-4.2,1.6-8.34,2.75-12.44c1.15-4.09,2.52-8.11,4.11-12.05
		c1.6-3.94,3.4-7.78,5.43-11.52c2.02-3.74,4.25-7.35,6.68-10.84c2.43-3.49,5.04-6.83,7.84-10.03c-16.09,5.22-48.06,30.49-61.66,67
		c-9.65-6.63-19.65-12.68-30.01-18.13c4.29-9.59,9.69-18.51,16.19-26.77c6.5-8.25,13.91-15.59,22.22-22.01
		c-7.74,1.39-15.26,3.57-22.55,6.54c-7.29,2.96-14.19,6.65-20.71,11.06c2.68-27.15,47.52-75.74,47.52-75.74
		c-11.59,6.28-65.54,28.84-91.23,86.41c-0.52-0.15-1.03-0.32-1.53-0.51v-0.04l-0.04,0.04c-11.4-3.69-22.95-6.77-34.67-9.26
		c2.8-6.27,5.98-12.35,9.56-18.21c3.58-5.86,7.52-11.48,11.82-16.83c4.3-5.36,8.93-10.42,13.88-15.18
		c4.95-4.76,10.19-9.18,15.71-13.27c-10.09,1.14-20.06,2.97-29.9,5.48c-9.84,2.51-19.46,5.69-28.86,9.52
		c-9.4,3.84-18.5,8.3-27.29,13.39s-17.19,10.75-25.2,17c-7.37-1.61-14.71-3.39-22-5.33c-91.04-24.16-136.71-63.92-136.71-63.92
		S62.13,362.72,176,401.36c38.53,13.08,78.97,22.18,121.12,36.49c8.72,2.96,17.27,6.34,25.66,10.13
		c8.39,3.79,16.58,7.98,24.56,12.56c7.98,4.58,15.72,9.55,23.22,14.88c7.5,5.34,14.73,11.02,21.68,17.06
		c6.95,6.04,13.59,12.4,19.92,19.08c6.33,6.68,12.32,13.65,17.98,20.92c5.65,7.26,10.94,14.79,15.87,22.56
		c4.93,7.78,9.46,15.78,13.61,23.99c20.58-30.85,51.28-32.71,77.33-22.14c0,0-10.41-41.11,27.22-60.22
		c-3.88-2.5-7.91-4.75-12.07-6.74c0.86-3.18,1.38-6.42,1.57-9.71c0.19-3.29,0.04-6.57-0.46-9.83c-0.49-3.26-1.32-6.43-2.47-9.52
		c-1.15-3.09-2.61-6.02-4.37-8.81c-4,3.16-8.27,5.88-12.82,8.17c-4.55,2.29-9.28,4.1-14.2,5.43c-15.46-8.83-18.99-18.06-17.48-27.34
		c2.25-13.75-0.22-25.24-19.47-37.52c32.17-29.12,99.74-41.09,118.74-28.59c-0.64,15-3.28,29.64-7.93,43.91
		c0,0,80.85,2.11,85.43-65.29l40.08-22.86C644.81,259.4,563.25,189.34,385.18,173.46"/>
	<path class="st2" d="M506.32,331.44c-12,4.97-23.48,10.93-34.44,17.89c-10.96,6.96-21.24,14.81-30.85,23.56
		c4.5-1.88,70.69-52.12,144.19-42.1c0,0-41.12-16.5-71.72-17.19c-18.53-0.42-36.92,0.96-55.18,4.16
		c-18.26,3.2-36.03,8.14-53.31,14.83c38.05-9.76,96.27-11.58,96.27-11.58c-17.99,4.34-35.44,10.26-52.36,17.78
		c-16.91,7.51-33.01,16.49-48.29,26.94C400.64,365.73,479.57,334.01,506.32,331.44 M487.14,247.24c0.68,0.74,1.97,2.03,3.72,3.64
		c2.4,2.18,5.61,4.72,9.37,7.55c-0.23,0.62-0.54,1.19-0.94,1.71c-0.4,0.52-0.87,0.97-1.41,1.34c-0.54,0.37-1.13,0.65-1.76,0.85
		c-0.63,0.19-1.27,0.28-1.93,0.27c-0.66-0.01-1.3-0.12-1.92-0.33c-0.62-0.21-1.2-0.51-1.73-0.9c-0.53-0.39-0.99-0.85-1.38-1.38
		c-0.39-0.53-0.68-1.11-0.89-1.73c-0.21,1.16-0.31,2.33-0.29,3.5c0.06,2.98,0.79,5.79,2.17,8.43c-1.29-1.19-2.7-2.23-4.21-3.12
		s-3.1-1.62-4.77-2.17c-1.67-0.56-3.38-0.93-5.12-1.12c-1.75-0.19-3.49-0.2-5.24-0.03c0.04-1.07,0.17-2.12,0.4-3.16
		c0.23-1.04,0.56-2.05,0.98-3.03c0.42-0.98,0.93-1.91,1.53-2.79c0.6-0.88,1.27-1.7,2.02-2.46c0.75-0.76,1.56-1.44,2.44-2.05
		s1.8-1.12,2.78-1.56c0.97-0.43,1.98-0.77,3.02-1.01C485.02,247.43,486.08,247.29,487.14,247.24 M507.66,292.38
		c2.77,0.06,5.53-0.12,8.27-0.55c2.74-0.43,5.42-1.1,8.04-2c2.62-0.9,5.14-2.03,7.56-3.39s4.7-2.91,6.85-4.67
		c0.73,0.68,1.51,1.3,2.33,1.87c0.82,0.57,1.67,1.09,2.56,1.54c0.89,0.46,1.81,0.85,2.75,1.18s1.9,0.6,2.88,0.8
		c0.98,0.2,1.97,0.34,2.97,0.4c1,0.07,1.99,0.07,2.99,0c1-0.07,1.99-0.2,2.96-0.4c0.98-0.2,1.94-0.47,2.88-0.8
		c15.5-6.84,9.38-26.87,9.38-26.87c-0.52,1.18-1.14,2.31-1.86,3.38c-0.72,1.07-1.52,2.08-2.41,3.01c-0.89,0.93-1.85,1.79-2.89,2.56
		c-1.04,0.77-2.13,1.45-3.28,2.03c-1.15,0.58-2.35,1.06-3.58,1.44c-1.23,0.38-2.49,0.65-3.77,0.8c-1.28,0.16-2.57,0.21-3.86,0.15
		c-1.29-0.06-2.56-0.23-3.82-0.51c-20.45-4.48-37.98-27.12-58-44.78c-2.38-2.1-56.02,9.15-80.4,38.85c0,0,28.87-10.01,42.44-9.98
		c14.01,0.04,1.44,16.68,1.44,16.68C476.95,268.34,507.66,292.38,507.66,292.38"/>
	<path class="st3" d="M678.69,350.81c-4.56,67.38-85.43,65.29-85.43,65.29c4.64-14.27,7.28-28.91,7.92-43.91
		c-18.99-12.5-86.57-0.53-118.74,28.58c19.23,12.28,21.68,23.77,19.42,37.52c-1.51,9.28,2.02,18.51,17.48,27.34
		c4.92-1.32,9.65-3.13,14.21-5.41c4.55-2.28,8.83-5,12.83-8.15c1.76,2.79,3.22,5.72,4.37,8.81c1.15,3.09,1.97,6.26,2.47,9.52
		c0.49,3.26,0.65,6.53,0.46,9.82c-0.19,3.29-0.71,6.53-1.57,9.71c4.17,1.99,8.19,4.23,12.07,6.74
		c-37.65,19.11-27.22,60.22-27.22,60.22c-26.05-10.56-56.75-8.7-77.33,22.14c-4.15-8.22-8.69-16.22-13.61-24
		c-4.93-7.78-10.22-15.3-15.87-22.57c-5.66-7.26-11.65-14.24-17.98-20.92c-6.33-6.68-12.98-13.04-19.93-19.08
		c-6.95-6.04-14.18-11.73-21.68-17.06c-7.5-5.34-15.25-10.3-23.23-14.88c-7.98-4.58-16.17-8.77-24.56-12.56
		c-8.39-3.79-16.95-7.16-25.66-10.12c-42.15-14.31-82.59-23.41-121.12-36.49C62.13,362.72,41.61,307.6,41.61,307.6
		s45.67,39.76,136.66,63.9l-0.24-0.06c4.56-8.27,10.06-15.85,16.49-22.76l-0.04,0.04C79.4,309.25,45.54,266.97,36.79,252.19
		c15.94,10.52,32.51,19.93,49.71,28.22c17.2,8.3,34.87,15.42,53.02,21.35c3.93-8.88,8.44-17.46,13.53-25.73v-0.27
		C43.23,233.86,32.22,196.85,32.22,196.85s36.59,31.64,135.93,58c5.85-7.33,12.53-13.8,20.05-19.4
		c-9.95-7.26-19.13-15.4-27.53-24.41c-8.4-9.02-15.86-18.75-22.4-29.19c91.81,18.46,172.61-18.99,193.76-19.23
		c9.76-0.11,38.15,9.49,53.16,10.83c178.07,15.88,259.63,85.94,333.54,154.49L678.69,350.81z M396.33,161.05
		c-12.21-0.95-24.27-2.85-36.18-5.7c-26.95-8.18-34.35-6.05-54.51-0.04c-20.51,6.3-41.35,11.14-62.54,14.54
		c-18.65,3.16-37.43,4.77-56.35,4.83c-12.31,0.26-24.56-0.48-36.75-2.21c-12.19-1.73-24.16-4.44-35.91-8.12
		c6.33,13.69,14.06,26.53,23.2,38.53c9.14,12,19.46,22.86,30.98,32.6l0.04,0.09c-2.45,1.55-4.79,3.25-7.01,5.11
		C65.19,214.29,29.68,183.51,11.06,170.6c10.63,62.34,96.52,98.95,121.61,108.35c-1.38,2.7-2.71,5.51-3.94,8.48
		C49.55,257.11,12.9,219.3,12.9,219.3c9.12,71.58,113.54,116.51,160.16,133.08c-1.38,1.78-2.76,3.64-4.15,5.6
		C61.58,322.95,22.09,279.24,22.09,279.24c6.01,38.15,35.34,97.39,147.42,132.51c12.04,3.78,23.79,7.45,35.26,11.02
		c109.69,33.98,196.4,57.66,252.35,182.14c3.19-7.74,19.04-41.35,54.51-41.35c7.59,0.33,15.01,1.64,22.26,3.94
		c7.25,2.29,14.07,5.49,20.47,9.59c-2.88-6.68-10.87-28.54-2.57-48.49c5.88-14.12,18.57-24.5,37.76-30.84
		c-7.08-6.79-15.12-12.13-24.11-16.04c-0.28-0.14-0.41-0.36-0.4-0.67c0.29-4.28,0.15-8.55-0.42-12.8
		c-0.57-4.26-1.54-8.41-2.93-12.47c-1.39-4.06-3.17-7.94-5.34-11.65c-2.16-3.71-4.67-7.16-7.53-10.37
		c-7.68,7.33-16.39,13.13-26.12,17.39c-0.2,0.1-0.41,0.1-0.61,0c-8.32-4.32-7.83-13.32-7.35-22.02c0.05-1.01,0.11-2.01,0.15-3
		c-0.08-2.3-0.4-4.57-0.94-6.8c-0.54-2.24-1.29-4.4-2.26-6.48c-0.97-2.08-2.14-4.05-3.5-5.91c-1.36-1.85-2.9-3.55-4.6-5.1
		c-0.08-0.08-0.14-0.16-0.18-0.27c-0.04-0.1-0.06-0.21-0.05-0.32c0.01-0.11,0.04-0.21,0.1-0.31c0.06-0.1,0.13-0.17,0.22-0.23
		c5.61-3.21,11.39-6.06,17.35-8.54c5.96-2.49,12.05-4.6,18.28-6.32c6.22-1.73,12.53-3.06,18.92-4.01
		c6.39-0.94,12.82-1.49,19.27-1.63c3.23,0,6.49,0.13,9.66,0.39c0.17,0.02,0.32,0.09,0.44,0.22c0.12,0.13,0.18,0.28,0.18,0.45
		c-0.48,8.11-2.02,16.01-4.62,23.7c-2.6,7.69-6.18,14.9-10.73,21.63c7.09,0.94,14.21,1.43,21.36,1.45h0.86
		c52.62,0,91.26-27.88,96.23-69.38c0.02-0.24,0.13-0.41,0.34-0.53l48.68-27.77C595,183.69,465.77,168.97,396.33,161.05"/>
	<path class="st3" d="M470.84,414.62c-7.96,13.48-8.4,29.45,3.88,47.52c3.13,4.61,11.12,6.9,21.02,6.94
		c-13.95-12.12-11.88-22-11.21-28.02C485.31,434.12,487.09,425.75,470.84,414.62"/>
</g>
</svg>
